<svg xmlns="http://www.w3.org/2000/svg" xmlns:xlink="http://www.w3.org/1999/xlink" viewBox="0 0 500 500"><defs><style>.cls-1{isolation:isolate;}.cls-2{fill:#EEEEEE;}.cls-3{fill:#7048a3;}.cls-4{fill:#dce6ff;}.cls-5{fill:url(#linear-gradient);}.cls-19,.cls-6{opacity:0.2;}.cls-7{fill:url(#linear-gradient-2);}.cls-8{fill:url(#linear-gradient-3);}.cls-12,.cls-9{opacity:0.1;}.cls-10{fill:#ffb227;}.cls-11{opacity:0.3;}.cls-13{fill:#fff;}.cls-14,.cls-15{fill:#ff58d5;}.cls-15{font-size:7.4px;font-family:Montserrat-Medium, Montserrat Medium;font-weight:500;}.cls-16{fill:#002b66;}.cls-17,.cls-18{fill:#005898;}.cls-18{mix-blend-mode:screen;}</style><linearGradient id="linear-gradient" x1="343" y1="272.9" x2="398.96" y2="272.9" gradientUnits="userSpaceOnUse"><stop offset="0" stop-color="#484ba3"/><stop offset="1" stop-color="#6468cc"/></linearGradient><linearGradient id="linear-gradient-2" x1="381.17" y1="260.32" x2="447.47" y2="260.32" xlink:href="#linear-gradient"/><linearGradient id="linear-gradient-3" x1="386.48" y1="369.4" x2="386.48" y2="115.74" xlink:href="#linear-gradient"/></defs><title>2164246</title><g class="cls-1"><g id="BACKGROUND"><rect class="cls-2" width="500" height="500"/></g><g id="OBJECTS"><path class="cls-3" d="M82.49,400.77a1.33,1.33,0,0,1-1.34-1.34,1.23,1.23,0,0,1,0-.27c0-.09,0-.17.07-.26s.09-.15.13-.22a1.73,1.73,0,0,1,.17-.21,1.2,1.2,0,0,1,.21-.17,2.36,2.36,0,0,1,.23-.13l.25-.07a1.57,1.57,0,0,1,.53,0l.25.07.23.13a1.29,1.29,0,0,1,.38.38,1.55,1.55,0,0,1,.12.22,2.58,2.58,0,0,1,.08.26,1.23,1.23,0,0,1,0,.27,1.34,1.34,0,0,1-.39.95A1.36,1.36,0,0,1,82.49,400.77Z" transform="translate(0 0)"/><path class="cls-3" d="M379.44,398a1.34,1.34,0,0,1,.5-1.84h0a1.34,1.34,0,0,1,1.84.5h0a1.33,1.33,0,0,1-.5,1.83h0a1.25,1.25,0,0,1-.67.18h0A1.35,1.35,0,0,1,379.44,398ZM77,394.47h0a1.36,1.36,0,0,1,.35-1.88h0a1.35,1.35,0,0,1,1.88.36h0a1.35,1.35,0,0,1-.36,1.87h0a1.3,1.3,0,0,1-.75.23h0A1.34,1.34,0,0,1,77,394.47Zm308.67-.22a1.35,1.35,0,0,1,.41-1.86h0a1.33,1.33,0,0,1,1.86.4h0a1.37,1.37,0,0,1-.4,1.87h0a1.4,1.4,0,0,1-.73.21h0A1.33,1.33,0,0,1,385.64,394.25Zm6-4a1.36,1.36,0,0,1,.3-1.89h0a1.36,1.36,0,0,1,1.89.3h0a1.36,1.36,0,0,1-.31,1.89h0a1.34,1.34,0,0,1-.79.26h0A1.36,1.36,0,0,1,391.64,390.24Zm-318.47-2.1a1.36,1.36,0,0,1,.57-1.82h0a1.35,1.35,0,0,1,1.83.57h0a1.35,1.35,0,0,1-.57,1.82h0a1.27,1.27,0,0,1-.63.15h0A1.36,1.36,0,0,1,73.17,388.14Zm324.25-2.23a1.34,1.34,0,0,1,.21-1.9h0a1.34,1.34,0,0,1,1.9.21h0a1.35,1.35,0,0,1-.21,1.89h0a1.3,1.3,0,0,1-.85.3h0A1.39,1.39,0,0,1,397.42,385.91ZM70.11,381.45h0a1.37,1.37,0,0,1,.77-1.76h0a1.35,1.35,0,0,1,1.74.77h0a1.34,1.34,0,0,1-.76,1.74h0a1.19,1.19,0,0,1-.49.1h0A1.35,1.35,0,0,1,70.11,381.45ZM403,381.29a1.35,1.35,0,0,1,.11-1.9h0a1.34,1.34,0,0,1,1.91.11h0a1.33,1.33,0,0,1-.11,1.89h0a1.31,1.31,0,0,1-.9.35h0A1.35,1.35,0,0,1,403,381.29Zm5.31-4.9a1.36,1.36,0,0,1,0-1.91h0a1.35,1.35,0,0,1,1.91,0h0a1.37,1.37,0,0,1,0,1.92h0a1.35,1.35,0,0,1-1,.4h0A1.33,1.33,0,0,1,408.28,376.39ZM67.79,374.46a1.35,1.35,0,0,1,.95-1.66h0a1.35,1.35,0,0,1,1.66.95h0a1.35,1.35,0,0,1-.94,1.65h0a1.23,1.23,0,0,1-.36.06h0A1.37,1.37,0,0,1,67.79,374.46Zm345.55-3.23a1.33,1.33,0,0,1-.09-1.9h0a1.35,1.35,0,0,1,1.91-.08h0a1.35,1.35,0,0,1,.09,1.9h0a1.36,1.36,0,0,1-1,.44h0A1.31,1.31,0,0,1,413.34,371.23Zm-347.12-4h0a1.33,1.33,0,0,1,1.1-1.55h0a1.36,1.36,0,0,1,1.56,1.11h0a1.35,1.35,0,0,1-1.12,1.55h0l-.22,0h0A1.35,1.35,0,0,1,66.22,367.27Zm351.9-1.43a1.36,1.36,0,0,1-.17-1.91h0a1.34,1.34,0,0,1,1.89-.17h0a1.34,1.34,0,0,1,.18,1.9h0a1.31,1.31,0,0,1-1,.48h0A1.41,1.41,0,0,1,418.12,365.84ZM65.41,360a1.34,1.34,0,0,1,1.27-1.42h0a1.35,1.35,0,0,1,1.42,1.27h0a1.34,1.34,0,0,1-1.26,1.42h-.08A1.35,1.35,0,0,1,65.41,360Zm357.23.25a1.35,1.35,0,0,1-.27-1.89h0a1.35,1.35,0,0,1,1.89-.27h0a1.34,1.34,0,0,1,.27,1.89h0a1.34,1.34,0,0,1-1.08.54h0A1.36,1.36,0,0,1,422.64,360.2Zm4.24-5.84a1.36,1.36,0,0,1-.37-1.88h0a1.36,1.36,0,0,1,1.88-.37h0a1.36,1.36,0,0,1,.36,1.88h0a1.35,1.35,0,0,1-1.11.59h0A1.37,1.37,0,0,1,426.88,354.36ZM66.64,354a1.34,1.34,0,0,1-1.29-1.4h0a1.36,1.36,0,0,1,1.41-1.29h0A1.34,1.34,0,0,1,68,352.72h0A1.33,1.33,0,0,1,66.7,354h-.06Zm364.18-5.7a1.34,1.34,0,0,1-.46-1.85h0a1.36,1.36,0,0,1,1.86-.46h0a1.35,1.35,0,0,1,.45,1.85h0a1.35,1.35,0,0,1-1.16.66h0A1.37,1.37,0,0,1,430.82,348.3ZM67.21,346.81a1.37,1.37,0,0,1-1.14-1.54h0a1.35,1.35,0,0,1,1.54-1.13h0a1.36,1.36,0,0,1,1.14,1.54h0a1.36,1.36,0,0,1-1.34,1.14h-.2Zm367.25-4.75a1.34,1.34,0,0,1-.55-1.82h0a1.34,1.34,0,0,1,1.83-.55h0a1.35,1.35,0,0,1,.54,1.83h0a1.37,1.37,0,0,1-1.2.71h0A1.32,1.32,0,0,1,434.46,342.06ZM68.54,339.72a1.36,1.36,0,0,1-1-1.66h0a1.34,1.34,0,0,1,1.65-.95h0a1.34,1.34,0,0,1,1,1.65h0a1.34,1.34,0,0,1-1.3,1h0A2.21,2.21,0,0,1,68.54,339.72Zm369.24-4.06a1.36,1.36,0,0,1-.64-1.8h0a1.36,1.36,0,0,1,1.8-.65h0a1.36,1.36,0,0,1,.64,1.8h0a1.34,1.34,0,0,1-1.22.76h0A1.47,1.47,0,0,1,437.78,335.66ZM70.66,332.81a1.34,1.34,0,0,1-.75-1.75h0a1.35,1.35,0,0,1,1.75-.76h0a1.37,1.37,0,0,1,.76,1.76h0a1.36,1.36,0,0,1-1.26.85h0A1.27,1.27,0,0,1,70.66,332.81Zm370.12-3.73a1.34,1.34,0,0,1-.73-1.76h0a1.35,1.35,0,0,1,1.77-.73h0a1.37,1.37,0,0,1,.73,1.76h0a1.37,1.37,0,0,1-1.26.84h0A1.3,1.3,0,0,1,440.78,329.08ZM73.57,326.21a1.36,1.36,0,0,1-.54-1.84h0a1.35,1.35,0,0,1,1.83-.54h0a1.35,1.35,0,0,1,.54,1.83h0a1.35,1.35,0,0,1-1.19.71h0A1.35,1.35,0,0,1,73.57,326.21Zm369.87-3.84a1.34,1.34,0,0,1-.82-1.72h0a1.35,1.35,0,0,1,1.72-.82h0a1.34,1.34,0,0,1,.82,1.72h0a1.34,1.34,0,0,1-1.27.9h0A1.42,1.42,0,0,1,443.44,322.37ZM77.2,320a1.35,1.35,0,0,1-.37-1.88h0a1.34,1.34,0,0,1,1.87-.37h0a1.37,1.37,0,0,1,.38,1.88h0a1.39,1.39,0,0,1-1.13.59h0A1.36,1.36,0,0,1,77.2,320Zm368.55-4.44a1.34,1.34,0,0,1-.9-1.68h0a1.33,1.33,0,0,1,1.67-.9h0a1.33,1.33,0,0,1,.91,1.67h0a1.33,1.33,0,0,1-1.29,1h0A1.74,1.74,0,0,1,445.75,315.53Zm-364.4-1.47a1.36,1.36,0,0,1-.23-1.9h0a1.35,1.35,0,0,1,1.89-.23h0a1.34,1.34,0,0,1,.24,1.89h0a1.35,1.35,0,0,1-1.07.53h0A1.37,1.37,0,0,1,81.35,314.06Zm4.53-5.63a1.34,1.34,0,0,1-.15-1.9h0a1.33,1.33,0,0,1,1.89-.15h0a1.35,1.35,0,0,1,.16,1.9h0a1.36,1.36,0,0,1-1,.47h0A1.3,1.3,0,0,1,85.88,308.43Zm361.82.15a1.35,1.35,0,0,1-1-1.63h0a1.35,1.35,0,0,1,1.63-1h0a1.34,1.34,0,0,1,1,1.62h0a1.36,1.36,0,0,1-1.32,1h0A1.87,1.87,0,0,1,447.7,308.58ZM90.6,303a1.37,1.37,0,0,1-.11-1.91h0A1.36,1.36,0,0,1,92.4,301h0a1.35,1.35,0,0,1,.11,1.9h0a1.31,1.31,0,0,1-1,.46h0A1.42,1.42,0,0,1,90.6,303Zm358.69-1.44A1.38,1.38,0,0,1,448.2,300h0a1.36,1.36,0,0,1,1.58-1.08h0a1.35,1.35,0,0,1,1.08,1.58h0a1.35,1.35,0,0,1-1.32,1.11h0Zm-353.87-4a1.35,1.35,0,0,1-.12-1.91h0a1.36,1.36,0,0,1,1.91-.12h0a1.36,1.36,0,0,1,.11,1.91h0a1.29,1.29,0,0,1-1,.46h0A1.36,1.36,0,0,1,95.42,297.59Zm355.07-3.18a1.34,1.34,0,0,1-1.16-1.51h0a1.34,1.34,0,0,1,1.51-1.16h0a1.34,1.34,0,0,1,1.16,1.51h0a1.34,1.34,0,0,1-1.33,1.17h-.18Zm-350.31-2.26a1.35,1.35,0,0,1-.18-1.9h0a1.36,1.36,0,0,1,1.91-.16h0a1.35,1.35,0,0,1,.16,1.9h0a1.33,1.33,0,0,1-1,.48h0A1.28,1.28,0,0,1,100.18,292.15Zm351.12-4.91a1.33,1.33,0,0,1-1.24-1.45h0a1.34,1.34,0,0,1,1.44-1.24h0a1.36,1.36,0,0,1,1.25,1.45h0a1.36,1.36,0,0,1-1.34,1.24h-.11Zm-346.56-.68a1.34,1.34,0,0,1-.26-1.89h0a1.34,1.34,0,0,1,1.89-.26h0a1.35,1.35,0,0,1,.26,1.89h0a1.34,1.34,0,0,1-1.08.53h0A1.3,1.3,0,0,1,104.74,286.56Zm4.21-5.87a1.35,1.35,0,0,1-.41-1.86h0a1.36,1.36,0,0,1,1.87-.41h0a1.33,1.33,0,0,1,.4,1.86h0a1.32,1.32,0,0,1-1.13.63h0A1.38,1.38,0,0,1,109,280.69ZM451.72,280a1.36,1.36,0,0,1-1.32-1.38h0a1.36,1.36,0,0,1,1.38-1.32h0a1.35,1.35,0,0,1,1.32,1.38h0a1.35,1.35,0,0,1-1.35,1.32h0Zm-339-5.52a1.35,1.35,0,0,1-.58-1.82h0a1.35,1.35,0,0,1,1.82-.58h0a1.36,1.36,0,0,1,.58,1.82h0a1.36,1.36,0,0,1-1.2.73h0A1.26,1.26,0,0,1,112.68,274.51Zm337.68-3h0a1.37,1.37,0,0,1,1.31-1.39h0a1.35,1.35,0,0,1,1.39,1.31h0a1.34,1.34,0,0,1-1.3,1.39h-.05A1.36,1.36,0,0,1,450.36,271.5ZM115.78,268a1.34,1.34,0,0,1-.79-1.73h0a1.35,1.35,0,0,1,1.74-.79h0a1.35,1.35,0,0,1,.78,1.74h0a1.35,1.35,0,0,1-1.26.87h0A1.09,1.09,0,0,1,115.78,268ZM450,264.36a1.34,1.34,0,0,1,1.23-1.45h0a1.35,1.35,0,0,1,1.46,1.23h0a1.36,1.36,0,0,1-1.23,1.46h-.12A1.34,1.34,0,0,1,450,264.36ZM118,261.13a1.35,1.35,0,0,1-1-1.61h0a1.34,1.34,0,0,1,1.6-1h0a1.35,1.35,0,0,1,1,1.6h0a1.35,1.35,0,0,1-1.32,1.06h0A1.46,1.46,0,0,1,118,261.13Zm331.16-3.88a1.34,1.34,0,0,1,1.15-1.51h0a1.35,1.35,0,0,1,1.52,1.15h0a1.36,1.36,0,0,1-1.16,1.52h-.18A1.34,1.34,0,0,1,449.19,257.25ZM119.2,254a1.36,1.36,0,0,1-1.3-1.4h0a1.37,1.37,0,0,1,1.41-1.3h0a1.35,1.35,0,0,1,1.29,1.41h0a1.35,1.35,0,0,1-1.35,1.29h0Zm328.85-3.81a1.35,1.35,0,0,1,1.07-1.58h0a1.35,1.35,0,0,1,1.58,1.07h0a1.37,1.37,0,0,1-1.08,1.59h-.25A1.35,1.35,0,0,1,448.05,250.2Zm-330.53-4.53a1.36,1.36,0,0,1,1.13-1.54h0a1.36,1.36,0,0,1,1.55,1.13h0a1.34,1.34,0,0,1-1.13,1.53h0l-.2,0h0A1.35,1.35,0,0,1,117.52,245.67Zm329-2.47a1.35,1.35,0,0,1,1-1.63h0a1.36,1.36,0,0,1,1.63,1h0a1.35,1.35,0,0,1-1,1.62h0a1.22,1.22,0,0,1-.32,0h0A1.34,1.34,0,0,1,446.56,243.2Zm-330.71-4.3a1.35,1.35,0,0,1,.84-1.71h0a1.37,1.37,0,0,1,1.72.84h0a1.37,1.37,0,0,1-.85,1.72h0a1.61,1.61,0,0,1-.43.07h0A1.35,1.35,0,0,1,115.85,238.9Zm328.87-2.61h0a1.37,1.37,0,0,1,.92-1.68h0a1.34,1.34,0,0,1,1.67.91h0a1.34,1.34,0,0,1-.91,1.67h0a1.31,1.31,0,0,1-.38.06h0A1.36,1.36,0,0,1,444.72,236.29Zm-331.64-3.84a1.36,1.36,0,0,1,.58-1.82h0a1.36,1.36,0,0,1,1.82.6h0a1.34,1.34,0,0,1-.58,1.81h0a1.38,1.38,0,0,1-.62.15h0A1.35,1.35,0,0,1,113.08,232.45Zm329.47-3a1.34,1.34,0,0,1,.83-1.71h0a1.35,1.35,0,0,1,1.72.83h0a1.36,1.36,0,0,1-.84,1.72h0a1.31,1.31,0,0,1-.44.07h0A1.34,1.34,0,0,1,442.55,229.46Zm-333-3.12a1.34,1.34,0,0,1,.39-1.86h0a1.34,1.34,0,0,1,1.87.4h0a1.34,1.34,0,0,1-.39,1.86h0a1.34,1.34,0,0,1-.74.21h0A1.34,1.34,0,0,1,109.51,226.34ZM440,222.76a1.35,1.35,0,0,1,.75-1.75h0a1.36,1.36,0,0,1,1.76.74h0a1.37,1.37,0,0,1-.75,1.77h0a1.45,1.45,0,0,1-.51.1h0A1.35,1.35,0,0,1,440,222.76Zm-334.62-2.27a1.34,1.34,0,0,1,.27-1.88h0a1.34,1.34,0,0,1,1.89.28h0a1.33,1.33,0,0,1-.28,1.88h0a1.31,1.31,0,0,1-.8.27h0A1.33,1.33,0,0,1,105.42,220.49Zm331.79-4.29a1.34,1.34,0,0,1,.66-1.79h0a1.35,1.35,0,0,1,1.79.66h0a1.36,1.36,0,0,1-.66,1.79h0a1.46,1.46,0,0,1-.57.12h0A1.33,1.33,0,0,1,437.21,216.2ZM101,214.82h0a1.34,1.34,0,0,1,.23-1.89h0a1.34,1.34,0,0,1,1.89.21h0a1.36,1.36,0,0,1-.22,1.9h0a1.34,1.34,0,0,1-.84.29h0A1.36,1.36,0,0,1,101,214.82Zm333-5a1.34,1.34,0,0,1,.57-1.82h0a1.35,1.35,0,0,1,1.82.57h0a1.35,1.35,0,0,1-.57,1.82h0a1.43,1.43,0,0,1-.62.16h0A1.34,1.34,0,0,1,434.05,209.78Zm-337.51-.63h0a1.34,1.34,0,0,1,.23-1.89h0a1.34,1.34,0,0,1,1.88.22h0a1.34,1.34,0,0,1-.21,1.89h0a1.35,1.35,0,0,1-.84.3h0A1.36,1.36,0,0,1,96.54,209.15Zm334-5.63a1.34,1.34,0,0,1,.47-1.84h0a1.35,1.35,0,0,1,1.85.48h0a1.34,1.34,0,0,1-.48,1.84h0a1.3,1.3,0,0,1-.68.19h0A1.32,1.32,0,0,1,430.58,203.52Zm-338.46-.14a1.36,1.36,0,0,1,.29-1.89h0a1.36,1.36,0,0,1,1.89.29h0a1.35,1.35,0,0,1-.29,1.89h0a1.32,1.32,0,0,1-.8.26h0A1.35,1.35,0,0,1,92.12,203.38Zm334.68-5.93a1.33,1.33,0,0,1,.38-1.86h0a1.33,1.33,0,0,1,1.87.38h0a1.34,1.34,0,0,1-.39,1.87h0a1.33,1.33,0,0,1-.74.22h0A1.31,1.31,0,0,1,426.8,197.45ZM88,197.36a1.34,1.34,0,0,1,.42-1.86h0a1.33,1.33,0,0,1,1.86.41h0a1.34,1.34,0,0,1-.41,1.86h0a1.3,1.3,0,0,1-.72.21h0A1.36,1.36,0,0,1,88,197.36Zm334.74-5.78a1.36,1.36,0,0,1,.29-1.89h0a1.35,1.35,0,0,1,1.88.29h0a1.35,1.35,0,0,1-.29,1.89h0a1.29,1.29,0,0,1-.79.26h0A1.34,1.34,0,0,1,422.71,191.58ZM84.31,191a1.36,1.36,0,0,1,.58-1.83h0a1.36,1.36,0,0,1,1.82.58h0a1.35,1.35,0,0,1-.58,1.81h0a1.27,1.27,0,0,1-.62.16h0A1.35,1.35,0,0,1,84.31,191Zm334-5.08a1.35,1.35,0,0,1,.19-1.9h0a1.36,1.36,0,0,1,1.9.19h0a1.34,1.34,0,0,1-.19,1.9h0a1.33,1.33,0,0,1-.85.31h0A1.35,1.35,0,0,1,418.33,185.93ZM81.2,184.37a1.36,1.36,0,0,1,.73-1.78h0a1.35,1.35,0,0,1,1.76.73h0a1.34,1.34,0,0,1-.73,1.77h0a1.29,1.29,0,0,1-.51.1h0A1.36,1.36,0,0,1,81.2,184.37Zm332.46-3.85h0a1.36,1.36,0,0,1,.09-1.91h0a1.35,1.35,0,0,1,1.91.09h0a1.36,1.36,0,0,1-.09,1.91h0a1.39,1.39,0,0,1-.91.35h0A1.36,1.36,0,0,1,413.66,180.52Zm-335-3a1.35,1.35,0,0,1,.87-1.7h0a1.36,1.36,0,0,1,1.7.88h0a1.37,1.37,0,0,1-.88,1.7h0a1.45,1.45,0,0,1-.41.06h0A1.33,1.33,0,0,1,78.66,177.48Zm330-2.12a1.36,1.36,0,0,1,0-1.91h0a1.36,1.36,0,0,1,1.91,0h0a1.35,1.35,0,0,1,0,1.91h0a1.33,1.33,0,0,1-.95.41h0A1.35,1.35,0,0,1,408.71,175.36Zm-332-4.94a1.35,1.35,0,0,1,1-1.62h0a1.34,1.34,0,0,1,1.62,1h0a1.35,1.35,0,0,1-1,1.62h0a1.05,1.05,0,0,1-.3,0h0A1.35,1.35,0,0,1,76.69,170.42Zm326.8.05a1.35,1.35,0,0,1-.11-1.9h0a1.35,1.35,0,0,1,1.9-.12h0a1.35,1.35,0,0,1,.12,1.91h0a1.36,1.36,0,0,1-1,.46h0A1.36,1.36,0,0,1,403.49,170.47ZM398,165.8a1.35,1.35,0,0,1-.17-1.9h0a1.35,1.35,0,0,1,1.9-.17h0a1.35,1.35,0,0,1,.17,1.9h0a1.35,1.35,0,0,1-1,.49h0A1.36,1.36,0,0,1,398,165.8ZM75.31,163.22a1.35,1.35,0,0,1,1.14-1.53h0A1.36,1.36,0,0,1,78,162.83h0a1.36,1.36,0,0,1-1.15,1.53h-.19A1.35,1.35,0,0,1,75.31,163.22Zm317.2-2.09h0a1.35,1.35,0,0,1-.15-1.9h0a1.36,1.36,0,0,1,1.91-.15h0a1.36,1.36,0,0,1,.15,1.91h0a1.36,1.36,0,0,1-1,.47h0A1.31,1.31,0,0,1,392.51,161.13Zm-318-5.2h0a1.34,1.34,0,0,1,1.26-1.43h0a1.35,1.35,0,0,1,1.43,1.26h0A1.34,1.34,0,0,1,76,157.19h-.09A1.35,1.35,0,0,1,74.53,155.93Zm312.53.35a1.34,1.34,0,0,1-.05-1.9h0a1.36,1.36,0,0,1,1.91-.07h0a1.37,1.37,0,0,1,.05,1.92h0a1.33,1.33,0,0,1-1,.42h0A1.36,1.36,0,0,1,387.06,156.28Zm-5.13-5.22a1.35,1.35,0,0,1,.1-1.91h0a1.34,1.34,0,0,1,1.9.11h0a1.35,1.35,0,0,1-.1,1.91h0a1.4,1.4,0,0,1-.9.34h0A1.35,1.35,0,0,1,381.93,151.06ZM75.68,150a1.36,1.36,0,0,1-1.33-1.37h0a1.36,1.36,0,0,1,1.38-1.33h0a1.34,1.34,0,0,1,1.32,1.37h0A1.35,1.35,0,0,1,75.7,150h0Zm301.67-4.73h0a1.33,1.33,0,0,1,.36-1.87h0a1.35,1.35,0,0,1,1.87.35h0a1.36,1.36,0,0,1-.36,1.88h0a1.34,1.34,0,0,1-.76.24h0A1.33,1.33,0,0,1,377.35,145.25ZM76,142.77a1.35,1.35,0,0,1-1.21-1.48h0a1.37,1.37,0,0,1,1.49-1.21h0a1.35,1.35,0,0,1,1.19,1.48h0a1.35,1.35,0,0,1-1.34,1.22H76Zm297.7-4h0a1.35,1.35,0,0,1,.69-1.78h0a1.36,1.36,0,0,1,1.79.69h0a1.36,1.36,0,0,1-.7,1.78h0a1.32,1.32,0,0,1-.54.12h0A1.37,1.37,0,0,1,373.71,138.75ZM77,135.61a1.35,1.35,0,0,1-1-1.59h0A1.36,1.36,0,0,1,77.49,133h0a1.38,1.38,0,0,1,1.06,1.6h0a1.37,1.37,0,0,1-1.33,1.07h0A1.23,1.23,0,0,1,77,135.61ZM187,131.75a1.35,1.35,0,0,1,1.29-1.41h0a1.33,1.33,0,0,1,1.4,1.28h0a1.34,1.34,0,0,1-1.29,1.41h-.05A1.34,1.34,0,0,1,187,131.75Zm184.4-.15h0a1.37,1.37,0,0,1,1.07-1.59h0a1.37,1.37,0,0,1,1.59,1.06h0a1.37,1.37,0,0,1-1.06,1.59h0l-.27,0h0A1.37,1.37,0,0,1,371.44,131.6Zm-190.45,1a1.36,1.36,0,0,1-1.13-1.55h0A1.34,1.34,0,0,1,181.4,130h0a1.34,1.34,0,0,1,1.12,1.54h0a1.34,1.34,0,0,1-1.33,1.14H181Zm13.21-1.68a1.35,1.35,0,0,1,1-1.64h0a1.34,1.34,0,0,1,1.64,1h0a1.35,1.35,0,0,1-1,1.64h0a1.32,1.32,0,0,1-.34,0h0A1.36,1.36,0,0,1,194.2,130.94Zm-20.44-.08a1.34,1.34,0,0,1-.85-1.7h0a1.35,1.35,0,0,1,1.7-.87h0a1.36,1.36,0,0,1,.86,1.7h0a1.36,1.36,0,0,1-1.29.94h0A1.6,1.6,0,0,1,173.76,130.86Zm27.32-2.12a1.34,1.34,0,0,1,.66-1.79h0a1.34,1.34,0,0,1,1.79.67h0a1.36,1.36,0,0,1-.67,1.79h0a1.38,1.38,0,0,1-.56.12h0A1.33,1.33,0,0,1,201.08,128.74Zm-122.44-.15a1.35,1.35,0,0,1-.86-1.7h0a1.35,1.35,0,0,1,1.71-.86h0a1.33,1.33,0,0,1,.85,1.7h0a1.33,1.33,0,0,1-1.27.93h0A1.61,1.61,0,0,1,78.64,128.59Zm88.27-.48a1.35,1.35,0,0,1-.64-1.8h0a1.34,1.34,0,0,1,1.79-.64h0a1.33,1.33,0,0,1,.64,1.79h0a1.33,1.33,0,0,1-1.22.78h0A1.44,1.44,0,0,1,166.91,128.11Zm40.57-2.69a1.35,1.35,0,0,1,.4-1.86h0a1.34,1.34,0,0,1,1.87.4h0a1.35,1.35,0,0,1-.4,1.87h0a1.4,1.4,0,0,1-.73.21h0A1.35,1.35,0,0,1,207.48,125.42Zm163.25-1.25a1.34,1.34,0,0,1,1.34-1.36h0a1.35,1.35,0,0,1,1.36,1.34h0a1.36,1.36,0,0,1-1.35,1.36h0A1.36,1.36,0,0,1,370.73,124.17Zm-210.31.53a1.34,1.34,0,0,1-.5-1.84h0a1.34,1.34,0,0,1,1.84-.5h0a1.36,1.36,0,0,1,.5,1.85h0a1.35,1.35,0,0,1-1.17.67h0A1.35,1.35,0,0,1,160.42,124.7Zm-79.26-2.88a1.36,1.36,0,0,1-.64-1.8h0a1.36,1.36,0,0,1,1.8-.64h0a1.35,1.35,0,0,1,.64,1.8h0a1.35,1.35,0,0,1-1.22.77h0A1.29,1.29,0,0,1,81.16,121.82Zm132.23-.55a1.34,1.34,0,0,1,.18-1.9h0a1.35,1.35,0,0,1,1.9.18h0a1.35,1.35,0,0,1-.18,1.89h0a1.32,1.32,0,0,1-.86.32h0A1.36,1.36,0,0,1,213.39,121.27Zm-59.19-.37h0a1.37,1.37,0,0,1-.42-1.87h0a1.36,1.36,0,0,1,1.88-.4h0a1.34,1.34,0,0,1,.4,1.86h0a1.32,1.32,0,0,1-1.13.62h0A1.29,1.29,0,0,1,154.2,120.9Zm218.17-2.6a1.36,1.36,0,0,1-1.18-1.5h0a1.35,1.35,0,0,1,1.5-1.18h0a1.34,1.34,0,0,1,1.18,1.5h0a1.34,1.34,0,0,1-1.33,1.19h-.17Zm-224.23-1.39h0a1.35,1.35,0,0,1-.37-1.87h0a1.36,1.36,0,0,1,1.88-.37h0a1.34,1.34,0,0,1,.36,1.87h0a1.34,1.34,0,0,1-1.12.6h0A1.34,1.34,0,0,1,148.14,116.91Zm70.66-.41a1.37,1.37,0,0,1,0-1.92h0a1.36,1.36,0,0,1,1.91,0h0a1.35,1.35,0,0,1,0,1.91h0a1.35,1.35,0,0,1-1,.39h0A1.34,1.34,0,0,1,218.8,116.5Zm-134.23-1a1.35,1.35,0,0,1-.35-1.87h0a1.35,1.35,0,0,1,1.88-.35h0a1.35,1.35,0,0,1,.34,1.88h0a1.35,1.35,0,0,1-1.11.59h0A1.38,1.38,0,0,1,84.57,115.45Zm57.57-2.5a1.34,1.34,0,0,1-.41-1.86h0a1.36,1.36,0,0,1,1.87-.42h0a1.35,1.35,0,0,1,.4,1.87h0a1.34,1.34,0,0,1-1.13.62h0A1.31,1.31,0,0,1,142.14,113Zm81.63-1.7a1.34,1.34,0,0,1-.13-1.9h0a1.35,1.35,0,0,1,1.9-.12h0a1.35,1.35,0,0,1,.13,1.9h0a1.39,1.39,0,0,1-1,.46h0A1.29,1.29,0,0,1,223.77,111.25Zm149.64-.1a1.35,1.35,0,0,1-1.09-1.56h0a1.33,1.33,0,0,1,1.56-1.09h0a1.33,1.33,0,0,1,1.09,1.56h0a1.35,1.35,0,0,1-1.32,1.11h0A1,1,0,0,1,373.41,111.15ZM89,109.75a1.36,1.36,0,0,1,0-1.91h0a1.35,1.35,0,0,1,1.91,0h0a1.36,1.36,0,0,1,0,1.91h0a1.35,1.35,0,0,1-1,.38h0A1.35,1.35,0,0,1,89,109.75Zm47-.46h0a1.37,1.37,0,0,1-.52-1.84h0a1.36,1.36,0,0,1,1.84-.53h0a1.35,1.35,0,0,1,.52,1.83h0a1.33,1.33,0,0,1-1.18.7h0A1.44,1.44,0,0,1,136,109.29Zm-6.34-3.2a1.35,1.35,0,0,1-.67-1.79h0a1.34,1.34,0,0,1,1.78-.68h0a1.35,1.35,0,0,1,.67,1.79h0a1.34,1.34,0,0,1-1.23.79h0A1.35,1.35,0,0,1,129.67,106.09Zm98.76-.35a1.37,1.37,0,0,1-.21-1.9h0a1.35,1.35,0,0,1,1.9-.2h0a1.34,1.34,0,0,1,.21,1.9h0a1.35,1.35,0,0,1-1.05.5h0A1.36,1.36,0,0,1,228.43,105.74Zm-134-.69a1.35,1.35,0,0,1,.45-1.85h0a1.36,1.36,0,0,1,1.86.45h0a1.36,1.36,0,0,1-.45,1.85h0a1.34,1.34,0,0,1-.71.2h0A1.34,1.34,0,0,1,94.46,105.05Zm280.26-1a1.35,1.35,0,0,1-1.1-1.56h0a1.36,1.36,0,0,1,1.57-1.1h0a1.35,1.35,0,0,1,1.09,1.56h0a1.34,1.34,0,0,1-1.33,1.12h0Zm-251.64-.51a1.36,1.36,0,0,1-.88-1.7h0a1.35,1.35,0,0,1,1.7-.87h0a1.35,1.35,0,0,1,.88,1.69h0a1.35,1.35,0,0,1-1.29.94h0A1.45,1.45,0,0,1,123.08,103.54ZM100.9,101.8a1.33,1.33,0,0,1,.9-1.68h0a1.35,1.35,0,0,1,1.68.9h0a1.35,1.35,0,0,1-.91,1.68h0a1.07,1.07,0,0,1-.39.07h0A1.34,1.34,0,0,1,100.9,101.8Zm15.37.11a1.36,1.36,0,0,1-1.13-1.54h0a1.34,1.34,0,0,1,1.54-1.12h0a1.36,1.36,0,0,1,1.13,1.55h0a1.35,1.35,0,0,1-1.33,1.14h0Zm-8.34-1.65a1.35,1.35,0,0,1,1.28-1.42h0a1.35,1.35,0,0,1,1.42,1.28h0a1.34,1.34,0,0,1-1.28,1.41h-.07A1.36,1.36,0,0,1,107.93,100.26Zm125-.17a1.36,1.36,0,0,1-.22-1.9h0A1.35,1.35,0,0,1,234.6,98h0a1.35,1.35,0,0,1,.23,1.9h0a1.35,1.35,0,0,1-1.06.51h0A1.34,1.34,0,0,1,232.93,100.09Zm143-3.17a1.35,1.35,0,0,1-1.19-1.5h0a1.36,1.36,0,0,1,1.5-1.18h0a1.34,1.34,0,0,1,1.18,1.5h0A1.33,1.33,0,0,1,376,96.93h-.16ZM237.43,94.44a1.34,1.34,0,0,1-.19-1.9h0a1.34,1.34,0,0,1,1.9-.18h0a1.35,1.35,0,0,1,.19,1.89h0a1.35,1.35,0,0,1-1.05.5h0A1.37,1.37,0,0,1,237.43,94.44Zm137.66-6A1.34,1.34,0,0,1,376.42,87h0a1.34,1.34,0,0,1,1.37,1.33h0a1.35,1.35,0,0,1-1.33,1.37h0A1.35,1.35,0,0,1,375.09,88.4Zm-133,.51A1.35,1.35,0,0,1,242,87h0a1.35,1.35,0,0,1,1.9-.1h0a1.36,1.36,0,0,1,.11,1.91h0a1.34,1.34,0,0,1-1,.44h0A1.33,1.33,0,0,1,242.07,88.91ZM247,83.64a1.35,1.35,0,0,1,0-1.91h0a1.35,1.35,0,0,1,1.91,0h0a1.36,1.36,0,0,1,0,1.91h0A1.31,1.31,0,0,1,248,84h0A1.36,1.36,0,0,1,247,83.64Zm127.37-2.15a1.35,1.35,0,0,1,1-1.61h0a1.36,1.36,0,0,1,1.6,1.05h0a1.34,1.34,0,0,1-1,1.6h0l-.28,0h0A1.35,1.35,0,0,1,374.37,81.49ZM252.24,78.67a1.36,1.36,0,0,1,.13-1.91h0a1.36,1.36,0,0,1,1.91.14h0a1.35,1.35,0,0,1-.13,1.9h0a1.34,1.34,0,0,1-.88.33h0A1.35,1.35,0,0,1,252.24,78.67Zm120-3.76h0a1.33,1.33,0,0,1,.68-1.78h0a1.35,1.35,0,0,1,1.78.67h0a1.33,1.33,0,0,1-.68,1.78h0a1.34,1.34,0,0,1-.55.13h0A1.37,1.37,0,0,1,372.23,74.91ZM257.77,74a1.34,1.34,0,0,1,.26-1.89h0a1.33,1.33,0,0,1,1.88.24h0a1.35,1.35,0,0,1-.24,1.9h0a1.34,1.34,0,0,1-.83.28h0A1.35,1.35,0,0,1,257.77,74Zm5.81-4.3a1.35,1.35,0,0,1,.36-1.88h0a1.35,1.35,0,0,1,1.87.36h0a1.36,1.36,0,0,1-.35,1.88h0a1.38,1.38,0,0,1-.77.23h0A1.35,1.35,0,0,1,263.58,69.73Zm105.19-.85A1.36,1.36,0,0,1,369.1,67h0a1.35,1.35,0,0,1,1.88.32h0a1.35,1.35,0,0,1-.33,1.88h0a1.29,1.29,0,0,1-.77.25h0A1.37,1.37,0,0,1,368.77,68.88Zm-99.15-3.1a1.36,1.36,0,0,1,.47-1.85h0a1.35,1.35,0,0,1,1.85.47h0a1.35,1.35,0,0,1-.46,1.85h0a1.37,1.37,0,0,1-.7.19h0A1.36,1.36,0,0,1,269.62,65.78Zm94.63-2.22a1.35,1.35,0,0,1,0-1.91h0a1.33,1.33,0,0,1,1.9,0h0a1.33,1.33,0,0,1,0,1.9h0a1.32,1.32,0,0,1-1,.4h0A1.37,1.37,0,0,1,364.25,63.56ZM275.9,62.2a1.34,1.34,0,0,1,.57-1.82h0a1.34,1.34,0,0,1,1.82.56h0a1.36,1.36,0,0,1-.58,1.83h0a1.38,1.38,0,0,1-.62.15h0A1.35,1.35,0,0,1,275.9,62.2ZM282.36,59a1.35,1.35,0,0,1,.69-1.78h0a1.36,1.36,0,0,1,1.78.68h0a1.34,1.34,0,0,1-.68,1.78h0a1.19,1.19,0,0,1-.55.12h0A1.37,1.37,0,0,1,282.36,59Zm76.54.06h0a1.34,1.34,0,0,1-.31-1.88h0a1.36,1.36,0,0,1,1.89-.31h0a1.34,1.34,0,0,1,.3,1.88h0a1.33,1.33,0,0,1-1.1.57h0A1.35,1.35,0,0,1,358.9,59.05ZM289,56.17a1.34,1.34,0,0,1,.79-1.73h0a1.35,1.35,0,0,1,1.74.79h0a1.35,1.35,0,0,1-.79,1.74h0a1.51,1.51,0,0,1-.48.08h0A1.36,1.36,0,0,1,289,56.17Zm63.9-.74h0a1.34,1.34,0,0,1-.6-1.81h0a1.34,1.34,0,0,1,1.81-.6h0a1.34,1.34,0,0,1,.6,1.81h0a1.35,1.35,0,0,1-1.21.74h0A1.26,1.26,0,0,1,352.91,55.43Zm-57.09-1.67a1.36,1.36,0,0,1,.89-1.69h0a1.37,1.37,0,0,1,1.69.89h0a1.35,1.35,0,0,1-.89,1.69h0a1.18,1.18,0,0,1-.41.07h0A1.35,1.35,0,0,1,295.82,53.76Zm50.6-1a1.35,1.35,0,0,1-.86-1.71h0a1.35,1.35,0,0,1,1.71-.86h0a1.36,1.36,0,0,1,.85,1.71h0a1.35,1.35,0,0,1-1.28.93h0A1.54,1.54,0,0,1,346.42,52.76Zm-43.67-1a1.35,1.35,0,0,1,1-1.63h0a1.34,1.34,0,0,1,1.63,1h0a1.36,1.36,0,0,1-1,1.63h0a1.63,1.63,0,0,1-.31,0h0A1.37,1.37,0,0,1,302.75,51.77Zm7.06-1.58a1.33,1.33,0,0,1,1.09-1.56h0a1.35,1.35,0,0,1,1.56,1.09h0a1.36,1.36,0,0,1-1.09,1.57h0l-.24,0h0A1.33,1.33,0,0,1,309.81,50.19Zm29.79.8a1.35,1.35,0,0,1-1.07-1.58h0a1.35,1.35,0,0,1,1.58-1.07h0a1.35,1.35,0,0,1,1.07,1.58h0a1.35,1.35,0,0,1-1.33,1.1h0Zm-22.67-1.91a1.35,1.35,0,0,1,1.21-1.47h0a1.34,1.34,0,0,1,1.48,1.2h0a1.34,1.34,0,0,1-1.2,1.48h-.14A1.38,1.38,0,0,1,316.93,49.08Zm15.67,1h0a1.33,1.33,0,0,1-1.24-1.45h0a1.33,1.33,0,0,1,1.45-1.23h0a1.34,1.34,0,0,1,1.24,1.44h0a1.36,1.36,0,0,1-1.35,1.25h-.1Zm-8.47-1.53a1.37,1.37,0,0,1,1.33-1.38h0a1.34,1.34,0,0,1,1.37,1.32h0a1.34,1.34,0,0,1-1.32,1.38h0A1.36,1.36,0,0,1,324.13,48.53Z" transform="translate(0 0)"/><path class="cls-3" d="M374.09,402.12a1.44,1.44,0,0,1-.51-.09,1.77,1.77,0,0,1-.45-.3,1.36,1.36,0,0,1,0-1.91,1.4,1.4,0,0,1,1.91,0,1.34,1.34,0,0,1,0,1.91A1.34,1.34,0,0,1,374.09,402.12Z" transform="translate(0 0)"/><path class="cls-4" d="M76,418.09H410.77c-1.79-9.44-3.41-18.9-.57-27.81,5.28-16.58,24.41-25.85,29.49-42.5,4.52-14.84-3.55-30.44-12.51-43.09s-19.53-25.49-20.76-40.95c-1.06-13.2,5-25.91,11.89-37.22s14.91-22.26,18.51-35,1.68-28.19-8.66-36.48c-12.31-9.86-30.17-5.86-45.5-2.15s-34.22,5.53-44.26-6.62c-6.43-7.78-6.84-18.81-11-28C319,100,295.8,91.84,276.07,95.91S239.91,113.69,227,129.14s-23.22,33-36.21,48.34c-11,13-27,25.35-43.54,21.36-14.86-3.58-24.85-19.31-40-21.61-10.82-1.64-21.79,4.46-28.28,13.28s-9.13,19.91-10.1,30.82a120.73,120.73,0,0,0,22.06,80.54c8.77,12.18,20.51,26.53,14.46,40.25-7.8,17.7-38.49,16.09-44.51,34.48-2.34,7.17.21,15,3.4,21.82A115.06,115.06,0,0,0,76,418.09Z" transform="translate(0 0)"/><path class="cls-5" d="M387.86,247.3C373,233,376.38,208,365.21,190.68a20.2,20.2,0,0,0-7.89-7.57c-3.34-1.58-7.56-1.64-10.53.55-3.56,2.64-4.42,7.78-3.38,12.08s3.61,8.06,5.85,11.89c8,13.67,12.19,29.9,9.7,45.53-2.66,16.67-12.62,31.67-14.14,48.48-1.05,11.61,2.07,23.32,7.3,33.74s12.52,19.67,20.18,28.46c-3.58-9.34-2.48-20.31-.26-30.06s6.58-18.89,11.59-27.54c5.49-9.47,11.89-18.67,14.6-29.28S395.74,254.89,387.86,247.3Z" transform="translate(0 0)"/><path class="cls-6" d="M387.86,247.3C373,233,376.38,208,365.21,190.68a20.2,20.2,0,0,0-7.89-7.57c-3.34-1.58-7.56-1.64-10.53.55-3.56,2.64-4.42,7.78-3.38,12.08s3.61,8.06,5.85,11.89c8,13.67,12.19,29.9,9.7,45.53-2.66,16.67-12.62,31.67-14.14,48.48-1.05,11.61,2.07,23.32,7.3,33.74s12.52,19.67,20.18,28.46c-3.58-9.34-2.48-20.31-.26-30.06s6.58-18.89,11.59-27.54c5.49-9.47,11.89-18.67,14.6-29.28S395.74,254.89,387.86,247.3Z" transform="translate(0 0)"/><path class="cls-6" d="M377.8,229.83c-.73,12.46-6.77,24.72-13.51,35.56-6.9,11.1-14.8,22-19.22,34.16-.09.69-.19,1.38-.25,2.09-1.05,11.61,2.07,23.32,7.3,33.74s12.52,19.67,20.18,28.46c-3.58-9.34-2.48-20.31-.26-30.06s6.58-18.89,11.59-27.54c5.49-9.47,11.89-18.67,14.6-29.28s-2.49-22.07-10.37-29.66C382.85,242.47,379.92,236.41,377.8,229.83Z" transform="translate(0 0)"/><path class="cls-7" d="M385,350.78a299.44,299.44,0,0,1-2.72-72.58c1.14-13.48,3.42-27.44,11.24-38.47,5.76-8.13,14.28-14.26,18.81-23.15,8-15.66,1.71-36,10.41-51.23,3.13-5.49,9.24-10.22,15.37-8.66,6.29,1.6,9.34,8.95,9.41,15.44.18,18.56-15.61,33.64-18.77,51.93s6.65,36.13,8.62,54.57c1.69,15.81-2.51,31.82-9.49,46.11s-16.67,27.06-26.56,39.52C393.49,363,386.19,358.56,385,350.78Z" transform="translate(0 0)"/><path class="cls-6" d="M385,350.78a299.44,299.44,0,0,1-2.72-72.58c1.14-13.48,3.42-27.44,11.24-38.47,5.76-8.13,14.28-14.26,18.81-23.15,8-15.66,1.71-36,10.41-51.23,3.13-5.49,9.24-10.22,15.37-8.66,6.29,1.6,9.34,8.95,9.41,15.44.18,18.56-15.61,33.64-18.77,51.93s6.65,36.13,8.62,54.57c1.69,15.81-2.51,31.82-9.49,46.11s-16.67,27.06-26.56,39.52C393.49,363,386.19,358.56,385,350.78Z" transform="translate(0 0)"/><path class="cls-6" d="M411.53,218c-4.67,8.16-12.6,14.07-18.06,21.78-7.82,11-10.1,25-11.24,38.47a299.39,299.39,0,0,0,.91,59.41,187.44,187.44,0,0,0,11.61,24.73,26.78,26.78,0,0,0,6.52,1.92c2.86-3.61,5.71-7.25,8.48-10.94,9.27-16.7,16.63-34.42,18.62-53.29C431.35,271.94,422.25,244.32,411.53,218Z" transform="translate(0 0)"/><path class="cls-8" d="M373.64,363.06c-15.69-6.26-23.45-24.89-22.47-41.75s8.77-32.46,16.19-47.63,14.79-31.09,14.8-48c0-19-9.29-36.84-11.19-55.75a72.81,72.81,0,0,1,8.78-42.43c2.84-5.09,6.8-10.18,12.47-11.48,8.27-1.9,16.33,5.54,18.36,13.78s-.27,16.85-2.42,25.06c-3.8,14.57-7.21,29.57-5.81,44.56,1.62,17.31,9.5,33.32,14.26,50,11.49,40.28,3.9,85.57-20.08,119.92C388.65,367.52,381.17,366.07,373.64,363.06Z" transform="translate(0 0)"/><path class="cls-9" d="M417.9,270a1.8,1.8,0,0,0-2.38.89,69.51,69.51,0,0,1-16,22.1c.41-1.62.78-3.24,1.1-4.88,3.71-19.06,1-38.35-2.21-54.7-.26-1.35-.54-2.71-.81-4.07a109.26,109.26,0,0,0,6.86-12.8,1.8,1.8,0,1,0-3.28-1.48c-1.39,3.09-3,6.13-4.66,9.08-.41-1.92-.82-3.84-1.22-5.73-2.68-12.49-5.45-25.42-6.54-38.3a118.86,118.86,0,0,1,0-20.84c5.47-4.89,10.77-10.06,15.78-15.4a1.8,1.8,0,1,0-2.63-2.46c-4,4.26-8.18,8.41-12.49,12.39a73.29,73.29,0,0,1,8.44-25.42,1.8,1.8,0,1,0-3.13-1.77c-7.37,13-10.68,29.13-9.89,48a80,80,0,0,0-9.39-9.91,1.8,1.8,0,0,0-2.39,2.69,76.88,76.88,0,0,1,12.19,13.79s0,0,0,0c1.15,12.85,3.88,25.63,6.53,38,1.05,4.89,2.13,9.95,3.1,14.93,2,10.4,3.85,22,3.91,33.92a90.71,90.71,0,0,0-14.12-20.7,1.8,1.8,0,1,0-2.67,2.41,87.25,87.25,0,0,1,16.42,26.23,1.22,1.22,0,0,0,.12.19,92.16,92.16,0,0,1-1.45,11.27,100.38,100.38,0,0,1-2.52,10,1.82,1.82,0,0,0-.16.55c-1.79,5.84-4,11.59-6.1,17.22-1.18,3.1-2.39,6.3-3.52,9.49a202.94,202.94,0,0,1-15.1-36.51,1.8,1.8,0,0,0-3.45,1,207.16,207.16,0,0,0,16.95,40.09c-3.48,10.55-6.6,23.56-4.62,36.49a1.81,1.81,0,0,0,1.78,1.53l.28,0a1.8,1.8,0,0,0,1.5-2.05c-2.11-13.78,2-27.88,5.78-38.64,1.2-3.39,2.5-6.83,3.76-10.15,2.14-5.64,4.32-11.39,6.13-17.28a73.09,73.09,0,0,0,21-26.81A1.79,1.79,0,0,0,417.9,270Z" transform="translate(0 0)"/><path class="cls-10" d="M408.3,362.13c-7.8.44-15.74,1.22-23.6,1.58-7.86-.36-15.81-1.14-23.6-1.58a93.17,93.17,0,0,0,13.49,55.81h20.22A93.17,93.17,0,0,0,408.3,362.13Z" transform="translate(0 0)"/><path class="cls-9" d="M408.3,362.13c-7.8.44-15.74,1.22-23.6,1.58-7.86-.36-15.81-1.14-23.6-1.58a91.31,91.31,0,0,0,.36,17.88l47.1-12.65C408.52,365.62,408.44,363.87,408.3,362.13Z" transform="translate(0 0)"/><rect class="cls-10" x="356.93" y="356.71" width="55.54" height="9.6"/><rect class="cls-11" x="356.93" y="356.71" width="55.54" height="9.6"/><rect class="cls-3" x="135.04" y="119.47" width="230.89" height="298.63" rx="18.02"/><g class="cls-12"><path class="cls-13" d="M365.93,190.26l-224,224a17.9,17.9,0,0,0,11.11,3.85h30.27l182.6-182.6Z" transform="translate(0 0)"/><path class="cls-13" d="M135,399,365.93,168.07V137.49a18,18,0,0,0-18-18H324.07l-189,189Z" transform="translate(0 0)"/></g><path class="cls-13" d="M347.9,124H300.29v5.19a6.08,6.08,0,0,1-6.07,6.07H206.75a6.07,6.07,0,0,1-6.07-6.07V124H153.06a13.54,13.54,0,0,0-13.52,13.52V400.07a13.54,13.54,0,0,0,13.52,13.52H347.9a13.54,13.54,0,0,0,13.53-13.52V137.49A13.54,13.54,0,0,0,347.9,124Z" transform="translate(0 0)"/><path class="cls-6" d="M252.74,127.65a2.26,2.26,0,1,1-2.26-2.26A2.26,2.26,0,0,1,252.74,127.65Z" transform="translate(0 0)"/><path class="cls-6" d="M230.07,127.65a2.26,2.26,0,1,1-2.26-2.26A2.26,2.26,0,0,1,230.07,127.65Z" transform="translate(0 0)"/><path class="cls-6" d="M275.41,127.65a2.26,2.26,0,1,1-2.25-2.26A2.25,2.25,0,0,1,275.41,127.65Z" transform="translate(0 0)"/><g class="cls-12"><path d="M178.4,199.75H162.73a11.64,11.64,0,0,1-11.63-11.63V172.45a11.64,11.64,0,0,1,11.63-11.63H178.4A11.65,11.65,0,0,1,190,172.45v15.67A11.65,11.65,0,0,1,178.4,199.75Zm-15.67-30.83a3.53,3.53,0,0,0-3.53,3.53v15.67a3.53,3.53,0,0,0,3.53,3.53H178.4a3.54,3.54,0,0,0,3.53-3.53V172.45a3.54,3.54,0,0,0-3.53-3.53Z" transform="translate(0 0)"/></g><path class="cls-9" d="M339.93,169.88H202.51a3.55,3.55,0,0,1-3.55-3.55h0a3.55,3.55,0,0,1,3.55-3.55H339.93a3.55,3.55,0,0,1,3.55,3.55h0A3.55,3.55,0,0,1,339.93,169.88Z" transform="translate(0 0)"/><rect class="cls-9" x="198.64" y="176.98" width="144.52" height="7.1" rx="3.55"/><path class="cls-9" d="M269.12,198.29H202.51a3.55,3.55,0,0,1-3.55-3.55h0a3.55,3.55,0,0,1,3.55-3.55h66.61a3.55,3.55,0,0,1,3.56,3.55h0A3.55,3.55,0,0,1,269.12,198.29Z" transform="translate(0 0)"/><g class="cls-12"><path d="M178.4,257.29H162.73a11.64,11.64,0,0,1-11.63-11.63V230a11.64,11.64,0,0,1,11.63-11.63H178.4A11.65,11.65,0,0,1,190,230v15.67A11.65,11.65,0,0,1,178.4,257.29Zm-15.67-30.83A3.53,3.53,0,0,0,159.2,230v15.67a3.53,3.53,0,0,0,3.53,3.53H178.4a3.54,3.54,0,0,0,3.53-3.53V230a3.54,3.54,0,0,0-3.53-3.53Z" transform="translate(0 0)"/></g><path class="cls-9" d="M339.93,227.42H202.51a3.55,3.55,0,0,1-3.55-3.55h0a3.55,3.55,0,0,1,3.55-3.55H339.93a3.55,3.55,0,0,1,3.55,3.55h0A3.55,3.55,0,0,1,339.93,227.42Z" transform="translate(0 0)"/><path class="cls-9" d="M339.61,241.63H202.19a3.55,3.55,0,0,1-3.55-3.55h0a3.55,3.55,0,0,1,3.55-3.56H339.61a3.55,3.55,0,0,1,3.55,3.56h0A3.55,3.55,0,0,1,339.61,241.63Z" transform="translate(0 0)"/><rect class="cls-9" x="198.96" y="248.73" width="73.72" height="7.1" rx="3.55"/><g class="cls-12"><path d="M178.4,314.83H162.73A11.64,11.64,0,0,1,151.1,303.2V287.53a11.64,11.64,0,0,1,11.63-11.63H178.4A11.65,11.65,0,0,1,190,287.53V303.2A11.65,11.65,0,0,1,178.4,314.83ZM162.73,284a3.53,3.53,0,0,0-3.53,3.53V303.2a3.54,3.54,0,0,0,3.53,3.53H178.4a3.54,3.54,0,0,0,3.53-3.53V287.53A3.54,3.54,0,0,0,178.4,284Z" transform="translate(0 0)"/></g><path class="cls-9" d="M339.93,285H202.51a3.55,3.55,0,0,1-3.55-3.55h0a3.55,3.55,0,0,1,3.55-3.55H339.93a3.55,3.55,0,0,1,3.55,3.55h0A3.55,3.55,0,0,1,339.93,285Z" transform="translate(0 0)"/><path class="cls-9" d="M339.61,299.17H202.19a3.55,3.55,0,0,1-3.55-3.55h0a3.55,3.55,0,0,1,3.55-3.56H339.61a3.55,3.55,0,0,1,3.55,3.56h0A3.55,3.55,0,0,1,339.61,299.17Z" transform="translate(0 0)"/><path class="cls-9" d="M269.12,313.37H202.51a3.55,3.55,0,0,1-3.55-3.55h0a3.55,3.55,0,0,1,3.55-3.55h66.61a3.55,3.55,0,0,1,3.56,3.55h0A3.55,3.55,0,0,1,269.12,313.37Z" transform="translate(0 0)"/><g class="cls-12"><path d="M178.4,372.37H162.73a11.64,11.64,0,0,1-11.63-11.63V345.07a11.63,11.63,0,0,1,11.63-11.63H178.4A11.64,11.64,0,0,1,190,345.07v15.67A11.65,11.65,0,0,1,178.4,372.37Zm-15.67-30.83a3.53,3.53,0,0,0-3.53,3.53v15.67a3.54,3.54,0,0,0,3.53,3.53H178.4a3.54,3.54,0,0,0,3.53-3.53V345.07a3.54,3.54,0,0,0-3.53-3.53Z" transform="translate(0 0)"/></g><path class="cls-9" d="M339.93,342.5H202.51A3.55,3.55,0,0,1,199,339h0a3.55,3.55,0,0,1,3.55-3.55H339.93a3.55,3.55,0,0,1,3.55,3.55h0A3.55,3.55,0,0,1,339.93,342.5Z" transform="translate(0 0)"/><rect class="cls-9" x="198.64" y="349.6" width="144.52" height="7.1" rx="3.55"/><rect class="cls-9" x="198.96" y="363.81" width="73.72" height="7.1" rx="3.55"/><circle class="cls-14" cx="154.8" cy="132.09" r="2.19"/><circle class="cls-14" cx="162.68" cy="132.09" r="2.19"/><circle class="cls-14" cx="170.56" cy="132.09" r="2.19"/><circle class="cls-14" cx="178.45" cy="132.09" r="2.19"/><circle class="cls-14" cx="186.33" cy="132.09" r="2.19"/><rect class="cls-14" x="307.8" y="128.36" width="12.81" height="7.08"/><rect class="cls-14" x="320.61" y="130" width="1.79" height="3.82" transform="translate(643 263.81) rotate(180)"/><text class="cls-15" transform="translate(329.01 134.29)">100%</text><path class="cls-16" d="M198.36,209.13c-9,8.16-18.3,17.36-26.49,26.31a69.26,69.26,0,0,1-7-10.77l-10.77,2.68a107,107,0,0,0,18.22,18.36C181.05,234,189.67,220.88,198.36,209.13Z" transform="translate(0 0)"/><path class="cls-16" d="M198.36,266.67c-9,8.16-18.3,17.36-26.49,26.31a69.26,69.26,0,0,1-7-10.77l-10.77,2.68a107,107,0,0,0,18.22,18.36C181.05,291.5,189.67,278.42,198.36,266.67Z" transform="translate(0 0)"/><path class="cls-16" d="M198.36,324.21c-9,8.16-18.3,17.36-26.49,26.31a69.26,69.26,0,0,1-7-10.77l-10.77,2.68a107,107,0,0,0,18.22,18.36C181.05,349,189.67,336,198.36,324.21Z" transform="translate(0 0)"/><path class="cls-16" d="M188.92,132.09c-6.12,10.48-12.25,22.06-17.38,33a69.55,69.55,0,0,1-9.87-8.19l-9.46,5.8a106.47,106.47,0,0,0,22.89,12C179.86,161,184.16,145.91,188.92,132.09Z" transform="translate(0 0)"/><polygon class="cls-14" points="78.4 404.51 82.52 394.7 90.34 399.25 83.84 407.68 78.4 404.51"/><polygon class="cls-14" points="125.46 411.08 123.53 398.74 136.21 398.74 134.28 411.08 125.46 411.08"/><path class="cls-14" d="M80.11,290.08c1.21,3.4,2.43,7.16,1.12,10.52,1,1.8-.3,4.61-1.93,5.82a4.42,4.42,0,0,1-5.57-.39A6.87,6.87,0,0,1,72,301.74a17.2,17.2,0,0,1,3.3-11.93c0-1.06.52-2.25,1.58-2.31S79.76,289.07,80.11,290.08Z" transform="translate(0 0)"/><path class="cls-16" d="M114.48,204.22a8,8,0,0,1-.23-7.86,18.59,18.59,0,0,1,5.42-6.13,51.72,51.72,0,0,0,6.29-5.32,18,18,0,0,0,4.49-13.86c-.27-2.46-1.17-5-3.14-6.52-3.09-2.34-7.75-1.23-10.62,1.37s-4.41,6.32-6,9.84-3.49,7.16-6.75,9.26c-2,1.3-4.38,1.91-6.39,3.19a11.42,11.42,0,0,0-4.35,13.3,6.61,6.61,0,0,0-1.22,7.1,10.93,10.93,0,0,0,5.3,5.22,16.86,16.86,0,0,0,14,.46c-.9-2.24-.42-5.56,1.42-7.12C113.55,206.4,114.56,205.36,114.48,204.22Z" transform="translate(0 0)"/><path class="cls-14" d="M158.75,174.88a4.92,4.92,0,0,1,1.22-6.4c-.48-2.33,1.21-5.35,3.57-5.67a3.36,3.36,0,0,1,3.67,2,4.71,4.71,0,0,1-.16,2.62,22,22,0,0,1-5.51,9.52A9.47,9.47,0,0,1,158.75,174.88Z" transform="translate(0 0)"/><path class="cls-10" d="M81.18,293.51a75.1,75.1,0,0,1,22.11-43.87c3.12-3,6.51-5.77,9.34-9s5.14-7.22,5.54-11.54a9.77,9.77,0,0,0-1.3-6.25,5.88,5.88,0,0,0-5.5-2.76c-6.65.94-12.25,5.87-16.57,11a88.55,88.55,0,0,0-20.59,58.3A14.47,14.47,0,0,0,81.18,293.51Z" transform="translate(0 0)"/><path class="cls-6" d="M81.18,293.51a75.1,75.1,0,0,1,22.11-43.87c3.12-3,6.51-5.77,9.34-9s5.14-7.22,5.54-11.54a9.77,9.77,0,0,0-1.3-6.25,5.88,5.88,0,0,0-5.5-2.76c-6.65.94-12.25,5.87-16.57,11a88.55,88.55,0,0,0-20.59,58.3A14.47,14.47,0,0,0,81.18,293.51Z" transform="translate(0 0)"/><path class="cls-17" d="M123.47,321.17a131.83,131.83,0,0,1-32.67,77A19.3,19.3,0,0,1,83.09,393c3.21-17.49,15.89-32.7,17.29-50.42.74-9.44-1.73-18.8-2.92-28.19s-3.94-23.51,1.59-31.2c8.25,4.32,18.31,14.62,23.1,22.6a25.22,25.22,0,0,1,3.48,8.52C126.15,317.38,123.71,318.1,123.47,321.17Z" transform="translate(0 0)"/><path class="cls-11" d="M123.47,321.17a131.83,131.83,0,0,1-32.67,77A19.3,19.3,0,0,1,83.09,393c3.21-17.49,15.89-32.7,17.29-50.42.74-9.44-1.73-18.8-2.92-28.19s-3.94-23.51,1.59-31.2c8.25,4.32,18.31,14.62,23.1,22.6a25.22,25.22,0,0,1,3.48,8.52C126.15,317.38,123.71,318.1,123.47,321.17Z" transform="translate(0 0)"/><path class="cls-6" d="M125.63,314.34a25.22,25.22,0,0,0-3.48-8.52c-4.69-7.8-14.4-17.81-22.54-22.29l-1.12.54c-4.43,7.28-2.51,19.38-1.3,28.32.26.48.53.94.8,1.4,4.54,7.79,10.36,14.81,14.42,22.85a40,40,0,0,1,4.56,16.3,130.12,130.12,0,0,0,6.5-31.77C123.71,318.1,126.15,317.38,125.63,314.34Z" transform="translate(0 0)"/><path class="cls-17" d="M128.19,283.12a354.73,354.73,0,0,1,8.61,118.57h-13c-3.6-14.51-6.87-30.54-6.73-45.48.09-9.25,1.61-18.69-.74-27.64-2.09-8-7.06-14.8-11.19-21.93s-7.57-15.31-6.11-23.42A61.74,61.74,0,0,1,128.19,283.12Z" transform="translate(0 0)"/><path class="cls-6" d="M115.73,281.48c4.28,2,9.09,3.94,13.56,6.34-.36-1.57-.71-3.14-1.1-4.7a61.74,61.74,0,0,0-29.14.1c-1.46,8.11,2,16.29,6.11,23.42s9.1,14,11.19,21.93c2.35,8.95.83,18.39.74,27.64-.14,14.94,3.13,31,6.73,45.48h6.05A263.7,263.7,0,0,0,115.73,281.48Z" transform="translate(0 0)"/><path class="cls-6" d="M129.8,290.12c-.17-.77-.33-1.54-.51-2.3s-.31-1.34-.47-2c-3-.92-5.39-2.34-9-3.23a45.88,45.88,0,0,0-6.59-1.15,62.21,62.21,0,0,0-8.6.71,19.07,19.07,0,0,0-7.1,4c-.12.29-.24.57-.35.87l0,.07c-.17.49-.32,1-.46,1.52l0,.12c-.14.52-.26,1.05-.36,1.6v.08a34.76,34.76,0,0,0-.51,5.3v.11c0,.59,0,1.17,0,1.76a.92.92,0,0,1,0,.16c0,.6,0,1.19,0,1.78v.11c.06,1.23.15,2.46.27,3.68v.1c.05.59.11,1.17.18,1.75a1.49,1.49,0,0,1,0,.21c.07.56.13,1.12.2,1.66l0,.27.21,1.59c0,.1,0,.2,0,.3,0,.33.09.64.13,1A52.43,52.43,0,0,0,129.8,290.12Z" transform="translate(0 0)"/><path class="cls-10" d="M93.59,298.15c11.07,3.22,27.18-5.9,38-9.85-.87-11.46-3.45-23.44-4.31-34.9-.94-12.39-2.19-25.63-10-35.3-3.17-3.93-10.42-1.67-14.23,1.63s-5.9,8.15-7.46,13C89.49,251.46,88.3,279.13,93.59,298.15Z" transform="translate(0 0)"/><path class="cls-6" d="M127.29,253.4c-.83-10.91-1.9-22.48-7.49-31.69a26.58,26.58,0,0,0-6.72,2.81c-4.29,2.46-7.86,6.39-12.24,8.67a96.12,96.12,0,0,0,26.5,20.75C127.32,253.76,127.3,253.58,127.29,253.4Z" transform="translate(0 0)"/><path class="cls-14" d="M108.13,203.68a98.44,98.44,0,0,0-1.49,15.42c2.53.69,5.25,1.64,7.82,1.13a84.65,84.65,0,0,0,.74-16A15.39,15.39,0,0,0,108.13,203.68Z" transform="translate(0 0)"/><path class="cls-6" d="M107,212.33a29.74,29.74,0,0,0,7.91,4,86.79,86.79,0,0,0,.32-11.16,7.17,7.17,0,0,0-1-1.21l-.08-.06a16,16,0,0,0-6-.27C107.62,206.54,107.26,209.43,107,212.33Z" transform="translate(0 0)"/><path class="cls-14" d="M108.36,193.66a27.1,27.1,0,0,1,12.47,14.53,10.61,10.61,0,0,1-6.22,5,12.73,12.73,0,0,1-11.36-1.85,10.49,10.49,0,0,1-3.83-10.63C100.43,196.86,104.85,191.76,108.36,193.66Z" transform="translate(0 0)"/><path class="cls-10" d="M163.33,175.3c-3.1,11.86-6.87,23.63-12.74,34.38s-14,20.51-24.41,26.94a27.9,27.9,0,0,1-10.56,4.22,14,14,0,0,1-10.8-2.65c-2.95-2.43-6.46-7.9-4.26-11,2.77-3.9,7.68-5.48,12.12-7.25a80.17,80.17,0,0,0,45.24-46.63Z" transform="translate(0 0)"/><path class="cls-16" d="M114.27,195.58a2,2,0,0,1-.48,1.54,4.76,4.76,0,0,1-1.29,1,18,18,0,0,1-8.46,2.54,6.33,6.33,0,0,1,.8,5.15c1,.76,1.66,1.74,2.61,2.5a19.21,19.21,0,0,0-3-1.17,1.64,1.64,0,0,0-1.65,0,1.12,1.12,0,0,0-.26,1.2,2.57,2.57,0,0,0,.76,1,7.55,7.55,0,0,0,3.36,1.78,8.47,8.47,0,0,1,.07,3.75c-3.45-.84-7.67-2.46-9.48-5.52-1.22-2.06-1.24-4.6-1-7,.28-3.43,1-7,3.06-9.7s5.83-4.45,9.06-3.27C110.89,190.39,113.82,192.91,114.27,195.58Z" transform="translate(0 0)"/><rect class="cls-17" x="121.31" y="398.74" width="17.11" height="5.89" rx="2.22"/><rect class="cls-18" x="121.31" y="398.74" width="17.11" height="5.89" rx="2.22"/><rect class="cls-17" x="78.6" y="392.85" width="17.11" height="5.89" rx="2.22" transform="translate(213.86 10.83) rotate(30.64)"/><rect class="cls-18" x="78.6" y="392.85" width="17.11" height="5.89" rx="2.22" transform="translate(213.86 10.83) rotate(30.64)"/><polygon class="cls-17" points="125.46 411.08 121.31 418.09 147.48 418.09 134.28 411.08 125.46 411.08"/><polygon class="cls-17" points="87.03 412.57 83.84 407.68 78.4 404.51 71.78 407.59 84.39 414.93 85.6 415.81 93.35 416.59 87.03 412.57"/><path class="cls-6" d="M292.42,407.68H208.55a2.77,2.77,0,0,1-2.77-2.77h0a2.76,2.76,0,0,1,2.77-2.76h83.87a2.75,2.75,0,0,1,2.76,2.76h0A2.76,2.76,0,0,1,292.42,407.68Z" transform="translate(0 0)"/><g class="cls-19"><circle cx="430.25" cy="123.15" r="3.68"/><path d="M208.62,78.87a3.16,3.16,0,1,1-3.16-3.16A3.17,3.17,0,0,1,208.62,78.87Z" transform="translate(0 0)"/><path d="M112,66a2,2,0,1,1-2-2A2.05,2.05,0,0,1,112,66Z" transform="translate(0 0)"/><path d="M109.68,137.68a2.24,2.24,0,1,1-2.24-2.24A2.23,2.23,0,0,1,109.68,137.68Z" transform="translate(0 0)"/><path d="M57.84,184.66a4.38,4.38,0,1,1-4.38-4.38A4.38,4.38,0,0,1,57.84,184.66Z" transform="translate(0 0)"/><path d="M321.5,78.72a2.29,2.29,0,1,1-2.29-2.29A2.28,2.28,0,0,1,321.5,78.72Z" transform="translate(0 0)"/><path d="M394.73,80.3h0A5.78,5.78,0,0,0,398.47,84h0a5.78,5.78,0,0,0-3.74,3.73h0A5.78,5.78,0,0,0,391,84h0a5.78,5.78,0,0,0,3.73-3.73Z" transform="translate(0 0)"/><path d="M445.24,382.68h0a5.78,5.78,0,0,0,3.74,3.73h0a5.79,5.79,0,0,0-3.74,3.74h0a5.8,5.8,0,0,0-3.73-3.74h0a5.78,5.78,0,0,0,3.73-3.73Z" transform="translate(0 0)"/><path d="M456.83,210.55h0a5.82,5.82,0,0,0,3.73,3.74h0a5.78,5.78,0,0,0-3.73,3.73h0a5.78,5.78,0,0,0-3.73-3.73h0a5.82,5.82,0,0,0,3.73-3.74Z" transform="translate(0 0)"/><path d="M351.09,100.34h0a5.78,5.78,0,0,0,3.73,3.73h0a5.78,5.78,0,0,0-3.73,3.73h0a5.78,5.78,0,0,0-3.74-3.73h0a5.78,5.78,0,0,0,3.74-3.73Z" transform="translate(0 0)"/><path d="M252.74,47.57h0a5.78,5.78,0,0,0,3.73,3.74h0A5.78,5.78,0,0,0,252.74,55h0A5.78,5.78,0,0,0,249,51.31h0a5.78,5.78,0,0,0,3.73-3.74Z" transform="translate(0 0)"/><path d="M57.84,85.52h0a5.78,5.78,0,0,0,3.73,3.73h0A5.78,5.78,0,0,0,57.84,93h0a5.8,5.8,0,0,0-3.74-3.73h0a5.8,5.8,0,0,0,3.74-3.73Z" transform="translate(0 0)"/><path d="M162.44,75.4h0a5.78,5.78,0,0,0,3.73,3.73h0a5.78,5.78,0,0,0-3.73,3.73h0a5.78,5.78,0,0,0-3.73-3.73h0a5.78,5.78,0,0,0,3.73-3.73Z" transform="translate(0 0)"/><path d="M52.82,261.64h0a5.78,5.78,0,0,0,3.73,3.73h0a5.78,5.78,0,0,0-3.73,3.73h0a5.78,5.78,0,0,0-3.73-3.73h0a5.78,5.78,0,0,0,3.73-3.73Z" transform="translate(0 0)"/></g></g></g></svg>